@startuml
class A {
    {static} int counter
    +void {abstract} start(int timeout)
    +void {abstract} start(Duration timeout)
}

note right of A::counter
    This member id annotated
end note
note right of A::"start(int timeout)"
    This method is now explained in a UML note
    This method with int
end note
note right of A::"start(Duration timeout)"
    This method with Duration
end note

'Note on links
class Dummy
Dummy --> Foo : A link
note on link #red: note that is #red

Dummy --> Foo2 : Another link
note right on link #blue
and in #blue
end note
@enduml