@startuml
package "classic Collections" #DDDDDD {
    Object <|-- ArrayList
}

package net.sourceforge.plantuml {
    Object <|-- Demo1
    Demo1 *- Demo2
}

scale 700 width
package foo1 <<Node>> {
    class Class1
}

package foo2 <<Rectangle>> {
    class Class2
}

package foo3 <<Folder>> {
    class Class3
}

package foo4 <<Frame>> {
    class Class4
}

package foo5 <<Cloud>> {
    class Class5
}

package foo6 <<Database>> {
    class Class6
}
@enduml